<svg height="512pt" viewBox="0 0 512 512" width="512pt" xmlns="http://www.w3.org/2000/svg"><path d="m452.886719 268.269531-183.402344-188.890625c-2.796875-2.882812-6.636719-4.519531-10.648437-4.550781-.039063 0-.074219 0-.113282 0-3.976562 0-7.792968 1.578125-10.605468 4.394531l-188.894532 188.890625c-2.8125 2.8125-4.394531 6.628907-4.394531 10.605469v218.28125c0 8.28125 6.714844 15 15 15h332.128906c30.421875 0 55.167969-24.746094 55.167969-55.164062v-178.117188c0-3.902344-1.519531-7.648438-4.238281-10.449219zm0 0" fill="#e7f0ef"/><path d="m452.886719 268.269531-183.402344-188.890625c-2.796875-2.882812-6.636719-4.519531-10.648437-4.550781-.039063 0-.074219 0-.113282 0-.9375 0-1.867187.09375-2.777344.265625v436.90625h146.011719c30.421875 0 55.171875-24.746094 55.171875-55.164062v-178.117188c-.003906-3.902344-1.523437-7.648438-4.242187-10.449219zm0 0" fill="#c5e1e6"/><path d="m498.175781 222.667969c-.039062-.035157-.074219-.070313-.109375-.105469l-208.761718-208.753906c-8.902344-8.90625-20.738282-13.808594-33.328126-13.808594-12.589843 0-24.425781 4.902344-33.328124 13.808594l-208.84375 208.835937c-.019532.015625-.035157.035157-.050782.050781-18.347656 18.378907-18.335937 48.261719.023438 66.628907 8.902344 8.90625 20.734375 13.8125 33.328125 13.8125 12.589843 0 24.425781-4.90625 33.332031-13.8125l177.917969-177.914063 67.5 72.25c.113281.125.234375.246094.355469.367188l105.308593 105.304687c8.902344 8.902344 20.738281 13.808594 33.324219 13.808594 12.589844 0 24.425781-4.90625 33.332031-13.8125 18.367188-18.378906 18.367188-48.28125 0-66.660156zm0 0" fill="#ff5b5b"/><path d="m498.175781 222.667969c-.039062-.035157-.074219-.070313-.109375-.105469l-208.761718-208.753906c-8.902344-8.90625-20.738282-13.808594-33.328126-13.808594-.011718 0-.023437.00390625-.03125.00390625v113.81640575l2.410157-2.410156 67.5 72.25c.117187.125.234375.246094.355469.367188l105.308593 105.304687c8.902344 8.902344 20.738281 13.808594 33.324219 13.808594 12.589844 0 24.425781-4.90625 33.332031-13.8125 18.367188-18.378906 18.367188-48.28125 0-66.660156zm0 0" fill="#ff0059"/><path d="m391.402344 51.636719-45.445313-47.058594c-2.828125-2.925781-6.722656-4.578125-10.789062-4.578125-4.070313 0-7.964844 1.652344-10.789063 4.578125l-45.445312 47.058594c-30.609375 31.695312-30.609375 83.265625 0 114.953125 14.988281 15.527344 34.960937 24.078125 56.238281 24.078125h.003906c21.265625 0 41.238281-8.546875 56.226563-24.066407 30.605468-31.691406 30.605468-83.265624 0-114.964843zm0 0" fill="#ff641a"/><path d="m367.902344 110.394531-21.941406-22.726562c-2.828126-2.925781-6.722657-4.578125-10.792969-4.578125-4.070313 0-7.964844 1.652344-10.789063 4.582031l-21.941406 22.722656c-17.644531 18.273438-17.644531 48.007813.003906 66.28125 8.710938 9.023438 20.335938 13.992188 32.726563 13.992188 12.398437 0 24.019531-4.96875 32.730469-13.992188 17.652343-18.273437 17.652343-48.007812.003906-66.28125zm0 0" fill="#ff9f04"/><path d="m135.480469 372.96875-45.449219-47.058594c-2.824219-2.925781-6.71875-4.578125-10.789062-4.578125-4.070313 0-7.964844 1.652344-10.789063 4.578125l-45.445313 47.058594c-30.605468 31.695312-30.605468 83.265625 0 114.957031 14.988282 15.523438 34.960938 24.074219 56.234376 24.074219h.003906c21.269531 0 41.238281-8.546875 56.230468-24.070312 30.605469-31.695313 30.605469-83.261719.003907-114.960938zm0 0" fill="#ff9f00"/><path d="m111.976562 431.726562-21.941406-22.722656c-2.828125-2.925781-6.71875-4.582031-10.789062-4.582031-4.070313 0-7.964844 1.65625-10.789063 4.582031l-21.941406 22.722656c-17.648437 18.273438-17.648437 48.007813 0 66.28125 8.714844 9.023438 20.339844 13.992188 32.730469 13.992188 12.398437 0 24.019531-4.96875 32.730468-13.992188 17.648438-18.273437 17.648438-48.007812 0-66.28125zm0 0" fill="#ffd400"/><path d="m263.976562 353.46875h-16.066406c-30.421875 0-55.167968 24.746094-55.167968 55.164062v103.367188h126.402343v-103.367188c0-30.417968-24.75-55.164062-55.167969-55.164062zm0 0" fill="#ff8a3c"/><path d="m319.144531 408.632812c0-30.417968-24.75-55.164062-55.167969-55.164062h-8.03125v158.53125h63.199219zm0 0" fill="#e56705"/></svg>