<svg
                        width="20"
                        height="17"
                        viewBox="0 0 29 26"
                        fill="none"
                        xmlns="http://www.w3.org/2000/svg"
                      >
                        <path
                          d="M27.7117 5.7853C27.599 5.48649 27.2561 5.33463 26.9622 5.46199C26.683 5.57956 26.5458 5.89797 26.6536 6.1772C27.1875 7.5978 27.4814 9.14088 27.4814 10.7476C27.4814 17.3412 22.5681 22.7836 16.2047 23.6164V17.5568C16.5917 17.4833 16.964 17.3804 17.3314 17.253V22.3476C22.5583 21.0789 26.438 16.3664 26.438 10.7476C26.438 6.25068 23.9495 2.33176 20.2755 0.298815C19.9963 0.142058 19.6387 0.254727 19.4966 0.543748C19.3644 0.813173 19.4672 1.14138 19.7269 1.28344C23.0531 3.12534 25.3064 6.67196 25.3064 10.7476C25.3064 15.3181 22.4701 19.2272 18.4581 20.8095V16.2929C19.1537 16.0725 19.6779 15.4258 19.6779 14.6519C19.6779 14.0101 19.3448 13.4566 18.8304 13.1578C19.237 9.26335 21.0103 10.2872 21.0103 9.04781V8.3277C21.0103 6.46622 16.7044 0.401687 14.6911 0.259626C14.5686 0.249828 14.4461 0.249828 14.3188 0.259626C12.3005 0.406585 7.99461 6.46622 7.99461 8.3277V9.0527C7.99461 10.2921 9.77282 9.26335 10.1745 13.1627C9.65525 13.4615 9.32704 14.015 9.32704 14.6568C9.32704 15.4307 9.8463 16.0774 10.5419 16.2978V20.8144C6.52991 19.237 3.6936 15.3279 3.6936 10.7525C3.6936 6.68176 5.94697 3.13513 9.27316 1.28834C9.53768 1.14138 9.63566 0.818072 9.50339 0.548646C9.36133 0.259626 9.00863 0.146957 8.72451 0.303714C5.05052 2.33665 2.56201 6.25557 2.56201 10.7525C2.56201 16.3713 6.44174 21.0789 11.6686 22.3525V17.2579C12.0409 17.3804 12.4083 17.4833 12.7953 17.5617V23.6213C6.43684 22.7885 1.5186 17.3461 1.5186 10.7525C1.5186 9.14578 1.81251 7.6027 2.34647 6.18209C2.45424 5.89797 2.31708 5.58446 2.03785 5.46689C1.74393 5.33953 1.40103 5.48649 1.28836 5.7902C0.710319 7.33328 0.391907 9.00372 0.391907 10.7525C0.391907 18.3503 6.39765 24.5471 13.9269 24.8509V17.7037C14.26 17.7233 14.6617 17.7282 15.0732 17.7037V24.846C22.6024 24.5471 28.6081 18.3503 28.6081 10.7525C28.6081 9.00372 28.2897 7.33328 27.7117 5.7853ZM17.9242 13.4958C18.561 13.4958 19.0852 14.0101 19.0852 14.6568C19.0852 15.2985 18.5659 15.8177 17.9242 15.8177C17.2873 15.8177 16.7632 15.3034 16.7632 14.6568C16.7632 14.015 17.2824 13.4958 17.9242 13.4958ZM11.0759 15.8128C10.4292 15.8128 9.91488 15.2887 9.91488 14.6519C9.91488 14.015 10.4292 13.4909 11.0759 13.4909C11.7176 13.4909 12.2368 14.0101 12.2368 14.6519C12.2368 15.2887 11.7225 15.8128 11.0759 15.8128Z"
                          fill="#626262"
                        />
                      </svg>