<?xml version="1.0" encoding="iso-8859-1"?>
<!-- Generator: Adobe Illustrator 18.0.0, SVG Export Plug-In . SVG Version: 6.00 Build 0)  -->
<!DOCTYPE svg PUBLIC "-//W3C//DTD SVG 1.1//EN" "http://www.w3.org/Graphics/SVG/1.1/DTD/svg11.dtd">
<svg version="1.1" id="Capa_1" xmlns="http://www.w3.org/2000/svg" xmlns:xlink="http://www.w3.org/1999/xlink" x="0px" y="0px"
	 viewBox="0 0 460 460" style="enable-background:new 0 0 460 460;" xml:space="preserve">
<path id="XMLID_1178_" d="M454.69,143.766c-0.113-2.271-1.285-4.357-3.164-5.637s-4.249-1.606-6.404-0.882l-32.77,11.022
	c1.192-10.633,2.428-27.437,1.455-46.622c-2.189-43.144-14.757-77.543-36.344-99.477c-2.48-2.52-6.415-2.888-9.316-0.873
	c-1.241,0.86-30.738,21.448-62.37,54.398c-13.625,14.192-25.411,28.304-35.35,42.297l-80.247-48.521
	c-2.311-1.397-5.205-1.397-7.517,0L8.346,154.87c-2.175,1.316-3.505,3.673-3.505,6.215v291.652c0,4.011,3.251,7.263,7.263,7.263
	h348.631c4.012,0,7.263-3.252,7.263-7.263V311.855c4.883-1.294,9.726-2.901,14.497-4.835
	C411.926,295.085,460.438,258.005,454.69,143.766z M353.473,445.474H19.368V165.181L186.42,64.172l75.876,45.878
	c-16.485,25.873-26.548,51.296-30.039,76.015c-0.832,5.894-1.317,11.664-1.477,17.302H108.947c-4.012,0-7.263,3.252-7.263,7.263
	v135.579c0,4.011,3.251,7.263,7.263,7.263h154.947c4.012,0,7.263-3.252,7.263-7.263v-52.273
	c18.985,14.437,42.392,21.906,66.455,21.906c5.269,0,10.569-0.366,15.861-1.085V445.474z M349.519,222.857
	c2.297,1.938,5.55,2.262,8.181,0.817l35.142-19.296c-0.059,59.409-25.216,78.86-40.858,85.205
	c-21.269,8.626-45.953,5.657-62.889-7.566c-16.941-13.227-24.284-34.575-20.677-60.113c7.249-51.326,62.584-97.447,80.135-110.909
	c22.985,32.767-0.954,103.191-1.211,103.933C346.358,217.767,347.223,220.919,349.519,222.857z M231.125,217.895
	c1.913,24.436,10.587,45.795,25.506,62.617v58.436H116.21V217.895H231.125z M377.037,293.558c-2.174,0.882-4.365,1.684-6.569,2.414
	c18.817-13.08,39.723-41.683,36.584-104.065c-0.126-2.499-1.528-4.757-3.713-5.976c-2.184-1.22-4.843-1.229-7.036-0.025
	l-30.268,16.62c6.796-27.208,15.284-79.697-11.13-106.536c-2.48-2.519-6.414-2.888-9.316-0.873
	c-3.347,2.322-82.074,57.628-91.555,124.757c-1.572,11.133-1.364,21.643,0.525,31.314c-8.481-17.841-11.277-39.307-7.918-63.089
	c11.521-81.582,102.036-154.136,124.676-171.129c41.172,48.602,25.256,139.68,25.084,140.621c-0.461,2.529,0.449,5.113,2.394,6.795
	c1.943,1.681,4.632,2.212,7.067,1.392l34.678-11.664C442.843,251.81,402.088,283.399,377.037,293.558z"/>
<g>
</g>
<g>
</g>
<g>
</g>
<g>
</g>
<g>
</g>
<g>
</g>
<g>
</g>
<g>
</g>
<g>
</g>
<g>
</g>
<g>
</g>
<g>
</g>
<g>
</g>
<g>
</g>
<g>
</g>
</svg>
