<svg height="512" viewBox="0 0 512 512" width="512" xmlns="http://www.w3.org/2000/svg"><g id="Fireman"><g id="Flat"><path d="m344 512h-288v-48a64.072 64.072 0 0 1 64-64 43.537 43.537 0 0 0 39.155-24.2l3.9-7.8h73.888l3.9 7.8a43.536 43.536 0 0 0 39.157 24.2 64.072 64.072 0 0 1 64 64z" fill="#e56161"/><path d="m280 400a44.013 44.013 0 0 1 -13.574-2.155 204.339 204.339 0 0 1 -210.426 94.987v19.168h288v-48a64.072 64.072 0 0 0 -64-64z" fill="#d65858"/><path d="m284 368h-168a68.089 68.089 0 0 1 -67.884-64h-.116a48 48 0 0 1 0-96h304a48 48 0 0 1 0 96h-.116a68.089 68.089 0 0 1 -67.884 64z" fill="#ffe7de"/><path d="m352 208v-3.49c-35.837 95.509-127.973 163.49-236 163.49h168a68.089 68.089 0 0 0 67.884-64h.116a48 48 0 0 0 0-96z" fill="#f9d8cd"/><circle cx="84" cy="316" fill="#fff5f2" r="12"/><circle cx="316" cy="316" fill="#fff5f2" r="12"/><path d="m200 335.294a51.189 51.189 0 0 1 -28.437-8.638 8 8 0 1 1 8.875-13.312 35.176 35.176 0 0 0 39.125 0 8 8 0 0 1 8.875 13.312 51.2 51.2 0 0 1 -28.438 8.638z" fill="#f4c2b5"/><path d="m56 320a8 8 0 0 1 -8-8v-96a8 8 0 0 1 16 0v96a8 8 0 0 1 -8 8z" fill="#bf4b4b"/><path d="m344 320a8 8 0 0 1 -8-8v-96a8 8 0 0 1 16 0v96a8 8 0 0 1 -8 8z" fill="#bf4b4b"/><path d="m280 304h-31.208a38.344 38.344 0 0 1 -37.5-30.742 11.517 11.517 0 0 0 -22.586 0 38.344 38.344 0 0 1 -37.498 30.742h-31.208a72.081 72.081 0 0 1 -72-72v-40h304v40a72.081 72.081 0 0 1 -72 72z" fill="#262626"/><path d="m336 208v24a56.077 56.077 0 0 1 -42.37 54.31 55.2 55.2 0 0 1 -13.63 1.69h-31.21a22.305 22.305 0 0 1 -21.81-17.88 27.514 27.514 0 0 0 -53.96 0 22.305 22.305 0 0 1 -21.81 17.88h-31.21a56.062 56.062 0 0 1 -56-56v-24z" fill="#3f3f3f"/><g fill="#848484"><path d="m123.62 275.62a8.006 8.006 0 1 1 5.65-2.34 7.949 7.949 0 0 1 -5.65 2.34zm-22.63-22.63a7.966 7.966 0 0 1 -5.66-2.34l-28.99-28.99a8 8 0 0 1 11.32-11.32l28.99 29a8 8 0 0 1 -5.66 13.65z"/><path d="m156 264a7.976 7.976 0 0 1 -5.657-2.343l-12-12a8 8 0 0 1 11.314-11.314l12 12a8 8 0 0 1 -5.657 13.657z"/><path d="m304 264a7.976 7.976 0 0 1 -5.657-2.343l-12-12a8 8 0 0 1 11.314-11.314l12 12a8 8 0 0 1 -5.657 13.657z"/><path d="m293.63 286.31a55.2 55.2 0 0 1 -13.63 1.69h-7.32l-11.55-11.56a8 8 0 0 1 11.31-11.31z"/><path d="m244.16 256.16a7.989 7.989 0 1 1 5.66-2.34 7.949 7.949 0 0 1 -5.66 2.34z"/></g><path d="m352 176h-304a8 8 0 0 1 -8-8c0-83.813 68.187-152 152-152h16c83.813 0 152 68.187 152 152a8 8 0 0 1 -8 8z" fill="#bf4b4b"/><path d="m272.869 176h-145.738l17.483-169.292 5.386-1.391a168.027 168.027 0 0 1 42-5.317h16a168.027 168.027 0 0 1 42 5.317l5.385 1.391z" fill="#e56161"/><path d="m56 480h56a8 8 0 0 1 0 16h-56z" fill="#f2b200"/><path d="m344 496h-56a8 8 0 0 1 0-16h56z" fill="#f2b200"/><path d="m432 85.351-5.954-6.635c-4.346-4.847-26.046-29.816-26.046-45.343a32 32 0 0 1 64 0c0 15.531-21.7 40.5-26.046 45.343z" fill="#0277bd"/><path d="m443.246 140.754.482-8.9c.351-6.5 2.662-39.5 13.645-50.479a32 32 0 0 1 45.254 45.254c-10.981 10.983-43.977 13.294-50.479 13.645z" fill="#0277bd"/><path d="m452.754 212.754-8.9-.482c-6.5-.351-39.5-2.662-50.479-13.645a32 32 0 0 1 45.254-45.254c10.983 10.981 13.294 43.977 13.645 50.479z" fill="#0277bd"/><path d="m435.313 512h-88.939l16.419-14.074c.525-.452 53.207-46.618 53.207-113.926v-8h64v8c0 82.367-40.614 123.928-42.343 125.657z" fill="#3f3f3f"/><path d="m392 120a8 8 0 0 1 8-8 8 8 0 0 1 8 8 8 8 0 0 1 -8 8 8 8 0 0 1 -8-8zm0-32a8 8 0 0 1 8-8 8 8 0 0 1 8 8 8 8 0 0 1 -8 8 8 8 0 0 1 -8-8z" fill="#01579b"/><path d="m472 200a8 8 0 0 1 8-8 8 8 0 0 1 8 8 8 8 0 0 1 -8 8 8 8 0 0 1 -8-8zm0-32a8 8 0 0 1 8-8 8 8 0 0 1 8 8 8 8 0 0 1 -8 8 8 8 0 0 1 -8-8z" fill="#01579b"/><path d="m104 448h192v64h-192z" fill="#ffd740"/><path d="m148 512h148v-64h-18.02a163.718 163.718 0 0 1 -129.98 64z" fill="#ffc400"/><path d="m200 512a8 8 0 0 1 -8-8v-128a8 8 0 0 1 16 0v128a8 8 0 0 1 -8 8z" fill="#bf4b4b"/><circle cx="92" cy="428" fill="#f29c9c" r="12"/><circle cx="124" cy="468" fill="#ffe7a4" r="12"/><circle cx="152" cy="480" fill="#ffe7a4" r="8"/><circle cx="180" cy="28" fill="#f29c9c" r="12"/><circle cx="208" cy="40" fill="#f29c9c" r="8"/><path d="m130.934 139.176-3.803 36.824h145.738l-14.069-136.224a192.35 192.35 0 0 1 -127.866 99.4z" fill="#d65858"/><path d="m376 224h-352a8 8 0 0 1 -7.155-11.578l24-48a8 8 0 0 1 7.155-4.422h304a8 8 0 0 1 7.155 4.422l24 48a8 8 0 0 1 -7.155 11.578z" fill="#e56161"/><path d="m200 144a32.036 32.036 0 0 1 -32-32v-32h64v32a32.036 32.036 0 0 1 -32 32z" fill="#ffd740"/><path d="m184 120a47.89 47.89 0 0 1 -15.532-2.584 32 32 0 0 0 63.532-5.416v-32h-.676a48 48 0 0 1 -47.324 40z" fill="#ffc400"/><circle cx="184" cy="96" fill="#ffe7a4" r="8"/><circle cx="420" cy="28" fill="#4baee0" r="12"/><circle cx="476" cy="92" fill="#4baee0" r="12"/><circle cx="412" cy="172" fill="#4baee0" r="12"/><path d="m383.155 212.422-24-48a8 8 0 0 0 -7.155-4.422h-40.043a212.957 212.957 0 0 1 -73.914 64h137.957a8 8 0 0 0 7.155-11.578z" fill="#d65858"/><circle cx="60" cy="180" fill="#f29c9c" r="12"/><circle cx="88" cy="192" fill="#f29c9c" r="8"/><path d="m455.994 12.233a44 44 0 0 1 -43.994 43.767c-1.123 0-2.232-.056-3.333-.139a179.486 179.486 0 0 0 17.379 22.855l5.954 6.635 5.954-6.635c4.346-4.847 26.046-29.816 26.046-45.343a31.862 31.862 0 0 0 -8.006-21.14z" fill="#0469bc"/><path d="m503.54 82.333a44.018 44.018 0 0 1 -58.44 35.075c-.887 6.667-1.251 12.173-1.373 14.444l-.482 8.9 8.9-.482c6.5-.351 39.5-2.662 50.479-13.645a32.032 32.032 0 0 0 .916-44.292z" fill="#0469bc"/><path d="m452.272 203.852c-.246-4.549-1.455-22.062-5.918-35.936a44 44 0 0 1 -52.876 30.808c11.08 10.9 43.891 13.2 50.374 13.548l8.9.482z" fill="#0469bc"/><path d="m416 224h64v168h-64z" fill="#848484"/><path d="m416 329.606v62.394h64v-134.641a132.449 132.449 0 0 1 -64 72.247z" fill="#525252"/><path d="m398.091 451.811c-15.326 28.619-34.978 45.84-35.3 46.115l-16.417 14.074h88.939l2.344-2.343c1.652-1.652 38.8-39.675 42.105-114.909a140.176 140.176 0 0 1 -81.671 57.063z" fill="#262626"/><path d="m488 488h-20a36 36 0 0 1 0-72h20a24.028 24.028 0 0 1 24 24v24a24.028 24.028 0 0 1 -24 24z" fill="#ffe7de"/><circle cx="456" cy="440" fill="#fff5f2" r="8"/><path d="m439.5 473c-.243 0-.483-.016-.726-.018a35.971 35.971 0 0 0 29.226 15.018h20a24.028 24.028 0 0 0 24-24v-24a23.867 23.867 0 0 0 -4.589-14.09 72.52 72.52 0 0 1 -67.911 47.09z" fill="#f9d8cd"/></g></g></svg>