<svg
                      width="20"
                      height="20"
                      viewBox="0 0 29 29"
                      fill="none"
                      xmlns="http://www.w3.org/2000/svg"
                    >
                      <g clipPath="url(#clip0)">
                        <path
                          d="M9.39668 22.509C9.39668 22.6223 9.26641 22.7129 9.10215 22.7129C8.91523 22.7299 8.78496 22.6393 8.78496 22.509C8.78496 22.3957 8.91523 22.3051 9.07949 22.3051C9.24941 22.2881 9.39668 22.3787 9.39668 22.509ZM7.63516 22.2541C7.59551 22.3674 7.70879 22.4977 7.87871 22.5316C8.02598 22.5883 8.1959 22.5316 8.22988 22.4184C8.26387 22.3051 8.15625 22.1748 7.98633 22.1238C7.83906 22.0842 7.6748 22.1408 7.63516 22.2541ZM10.1387 22.1578C9.97441 22.1975 9.86113 22.3051 9.87812 22.4354C9.89512 22.5486 10.0424 22.6223 10.2123 22.5826C10.3766 22.543 10.4898 22.4354 10.4729 22.3221C10.4559 22.2145 10.3029 22.1408 10.1387 22.1578ZM13.8656 0.453125C6.00957 0.453125 0 6.41738 0 14.2734C0 20.5549 3.95352 25.9301 9.60059 27.8219C10.3256 27.9521 10.5805 27.5047 10.5805 27.1365C10.5805 26.7854 10.5635 24.8482 10.5635 23.6588C10.5635 23.6588 6.59863 24.5084 5.76602 21.9709C5.76602 21.9709 5.12031 20.3227 4.19141 19.8979C4.19141 19.8979 2.89434 19.0086 4.28203 19.0256C4.28203 19.0256 5.69238 19.1389 6.46836 20.4869C7.70879 22.6732 9.7875 22.0445 10.5975 21.6707C10.7277 20.7645 11.0959 20.1357 11.5037 19.7619C8.3375 19.4107 5.14297 18.952 5.14297 13.5031C5.14297 11.9455 5.57344 11.1639 6.47969 10.167C6.33242 9.79883 5.85098 8.28086 6.62695 6.32109C7.81074 5.95293 10.5352 7.85039 10.5352 7.85039C11.668 7.5332 12.8857 7.36895 14.0922 7.36895C15.2986 7.36895 16.5164 7.5332 17.6492 7.85039C17.6492 7.85039 20.3736 5.94727 21.5574 6.32109C22.3334 8.28652 21.852 9.79883 21.7047 10.167C22.6109 11.1695 23.166 11.9512 23.166 13.5031C23.166 18.9689 19.8299 19.4051 16.6637 19.7619C17.1848 20.2094 17.6266 21.059 17.6266 22.39C17.6266 24.2988 17.6096 26.6607 17.6096 27.1252C17.6096 27.4934 17.8701 27.9408 18.5895 27.8105C24.2535 25.9301 28.0938 20.5549 28.0938 14.2734C28.0938 6.41738 21.7217 0.453125 13.8656 0.453125ZM5.50547 19.9885C5.43184 20.0451 5.44883 20.1754 5.54512 20.283C5.63574 20.3736 5.76602 20.4133 5.83965 20.3396C5.91328 20.283 5.89629 20.1527 5.8 20.0451C5.70938 19.9545 5.5791 19.9148 5.50547 19.9885ZM4.89375 19.5297C4.8541 19.6033 4.91074 19.6939 5.02402 19.7506C5.11465 19.8072 5.22793 19.7902 5.26758 19.7109C5.30723 19.6373 5.25059 19.5467 5.1373 19.49C5.02402 19.4561 4.9334 19.473 4.89375 19.5297ZM6.72891 21.5461C6.63828 21.6197 6.67227 21.7896 6.80254 21.8973C6.93281 22.0275 7.09707 22.0445 7.1707 21.9539C7.24434 21.8803 7.21035 21.7104 7.09707 21.6027C6.97246 21.4725 6.80254 21.4555 6.72891 21.5461ZM6.0832 20.7135C5.99258 20.7701 5.99258 20.9174 6.0832 21.0477C6.17383 21.1779 6.32676 21.2346 6.40039 21.1779C6.49102 21.1043 6.49102 20.957 6.40039 20.8268C6.32109 20.6965 6.17383 20.6398 6.0832 20.7135Z"
                          fill="#626262"
                        />
                      </g>
                      <defs>
                        <clipPath id="clip0">
                          <rect width="28.0938" height="29" fill="white" />
                        </clipPath>
                      </defs>
                    </svg>