<svg
                        width="17"
                        height="20"
                        viewBox="0 0 26 29"
                        fill="none"
                        xmlns="http://www.w3.org/2000/svg"
                      >
                        <g clipPath="url(#clip0)">
                          <path
                            d="M5.67992 25.375H0.419141V8.4338H5.67992V25.375ZM3.0467 6.12286C1.36447 6.12286 0 4.7295 0 3.04728C1.20407e-08 2.23924 0.320991 1.4643 0.892358 0.892937C1.46372 0.32157 2.23866 0.000579834 3.0467 0.000579834C3.85473 0.000579834 4.62967 0.32157 5.20104 0.892937C5.77241 1.4643 6.0934 2.23924 6.0934 3.04728C6.0934 4.7295 4.72836 6.12286 3.0467 6.12286ZM25.3693 25.375H20.1199V17.1281C20.1199 15.1627 20.0802 12.6422 17.3847 12.6422C14.6495 12.6422 14.2304 14.7775 14.2304 16.9865V25.375H8.97527V8.4338H14.0208V10.7447H14.0945C14.7968 9.41368 16.5124 8.00899 19.072 8.00899C24.3963 8.00899 25.375 11.515 25.375 16.0689V25.375H25.3693Z"
                            fill="#626262"
                          />
                        </g>
                        <defs>
                          <clipPath id="clip0">
                            <rect width="25.375" height="29" fill="white" />
                          </clipPath>
                        </defs>
                      </svg>